# xmcd
#
# Track frame offsets:
#	150
#	13112
#	30187
#	45675
#	55400
#	68287
#	83400
#	98787
#	110950
#	123837
#	136125
#	153300
#
# Disc length: 2258 seconds
#
# Revision: 1
# Processed by: cddbd v1.5.2PL0 Copyright (c) Steve Scherf et al.
# Submitted via: audiograbber 1.83.01
#
DISCID=8b08d00c
DTITLE=Rhonda Vincent - Destination Life
DYEAR=2009
DGENRE=Bluegrass
TTITLE0=Last Time Loving You
TTITLE1=I Can Make Him Whisper I Love You
TTITLE2=Destination Life
TTITLE3=Heart Wrenching Lovesick Memories
TTITLE4=Crazy What A Lonely Heart Will Do (duet with Ben Helson)
TTITLE5=Anywhere Is Home When You're With Me
TTITLE6=Stop The World (And Let Me Off)
TTITLE7=Crazy Love
TTITLE8=What A Woman Wants To Hear
TTITLE9=I Heard My Saviour Calling Me
TTITLE10=Eighth Of January
TTITLE11=When I Travel My Last Mile (He Will Hold My Hand)
EXTD=Rounder Records Corporation\nRounder UPC # 11661-0623-2
EXTT0=
EXTT1=
EXTT2=
EXTT3=
EXTT4=
EXTT5=
EXTT6=
EXTT7=
EXTT8=
EXTT9=
EXTT10=
EXTT11=
PLAYORDER=
